<?xml version="1.0" encoding="iso-8859-1"?><!-- Generator: Adobe Illustrator 19.1.1, SVG Export Plug-In . SVG Version: 6.00 Build 0)  --><svg xmlns="http://www.w3.org/2000/svg" xmlns:xlink="http://www.w3.org/1999/xlink" viewBox="0 0 50 50" width="250px" height="250px"><path d="M32,20l-2.028,11h2.646l0.527-3l1.646,0c3.446,0,5.321-0.798,6.022-3.756C41.416,21.703,39.875,20,37.333,20H32z M35.228,26h-1.71l0.755-4h2.061c1.708,0,2.067,0.77,1.978,1.627C38.083,25.833,36.708,26,35.228,26z"/><path d="M11,20L8.972,31h2.646l0.527-3l1.646,0c3.446,0,5.321-0.798,6.022-3.756C20.416,21.703,18.875,20,16.333,20H11z M14.228,26h-1.71l0.755-4h2.061c1.708,0,2.067,0.77,1.978,1.627C17.083,25.833,15.708,26,14.228,26z"/><ellipse style="fill:none;stroke:#000000;stroke-width:2;stroke-miterlimit:10;" cx="25" cy="25" rx="23" ry="12"/><path d="M29.682,20.727C29.117,20.209,28.121,20,26.636,20h-2.339l0.834-4h-2.624L20,28l2.625,0l1.266-6h2.098c0.669,0,1.111,0.112,1.317,0.333c0.205,0.223,0.25,0.643,0.131,1.251L26.479,28h2.666l1.038-4.778C30.406,22.077,30.237,21.237,29.682,20.727z"/></svg>